<svg width="1600" height="1000" viewBox="0 0 1600 1000" fill="none" xmlns="http://www.w3.org/2000/svg">
  <rect width="1600" height="1000" rx="42" fill="#0F0F12"/>
  <rect x="56" y="56" width="1488" height="888" rx="32" fill="#141419" stroke="rgba(255,255,255,0.06)"/>
  <rect x="100" y="100" width="1400" height="48" rx="24" fill="#1A1A20"/>
  <circle cx="130" cy="124" r="8" fill="#F87171"/>
  <circle cx="162" cy="124" r="8" fill="#FBBF24"/>
  <circle cx="194" cy="124" r="8" fill="#34D399"/>
  <rect x="112" y="188" width="620" height="356" rx="28" fill="url(#hero)"/>
  <rect x="776" y="188" width="610" height="166" rx="24" fill="#18181B"/>
  <rect x="776" y="386" width="294" height="158" rx="24" fill="#18181B"/>
  <rect x="1092" y="386" width="294" height="158" rx="24" fill="#18181B"/>
  <rect x="112" y="592" width="428" height="248" rx="24" fill="#18181B"/>
  <rect x="564" y="592" width="428" height="248" rx="24" fill="#18181B"/>
  <rect x="1016" y="592" width="370" height="248" rx="24" fill="#18181B"/>
  <rect x="156" y="242" width="248" height="22" rx="11" fill="#FCD34D"/>
  <rect x="156" y="284" width="328" height="18" rx="9" fill="#F4F4F5" fill-opacity="0.85"/>
  <rect x="156" y="318" width="286" height="18" rx="9" fill="#F4F4F5" fill-opacity="0.48"/>
  <rect x="156" y="378" width="188" height="48" rx="24" fill="#F59E0B"/>
  <rect x="356" y="378" width="170" height="48" rx="24" fill="#27272A"/>
  <rect x="822" y="232" width="220" height="22" rx="11" fill="#F4F4F5" fill-opacity="0.88"/>
  <rect x="822" y="272" width="404" height="14" rx="7" fill="#D4D4D8" fill-opacity="0.48"/>
  <rect x="822" y="304" width="352" height="14" rx="7" fill="#D4D4D8" fill-opacity="0.48"/>
  <rect x="822" y="428" width="110" height="18" rx="9" fill="#F4F4F5" fill-opacity="0.88"/>
  <rect x="1138" y="428" width="124" height="18" rx="9" fill="#F4F4F5" fill-opacity="0.88"/>
  <rect x="156" y="642" width="160" height="18" rx="9" fill="#F4F4F5" fill-opacity="0.88"/>
  <rect x="608" y="642" width="176" height="18" rx="9" fill="#F4F4F5" fill-opacity="0.88"/>
  <rect x="1060" y="642" width="138" height="18" rx="9" fill="#F4F4F5" fill-opacity="0.88"/>
  <text x="156" y="520" fill="#FAFAFA" font-size="48" font-family="Arial, sans-serif" font-weight="700">Luma Bistro</text>
  <defs>
    <linearGradient id="hero" x1="112" y1="188" x2="732" y2="544" gradientUnits="userSpaceOnUse">
      <stop stop-color="#F59E0B" stop-opacity="0.8"/>
      <stop offset="1" stop-color="#78350F" stop-opacity="0.8"/>
    </linearGradient>
  </defs>
</svg>
