<svg width="1600" height="1000" viewBox="0 0 1600 1000" fill="none" xmlns="http://www.w3.org/2000/svg">
  <rect width="1600" height="1000" rx="42" fill="#0F0F12"/>
  <rect x="56" y="56" width="1488" height="888" rx="32" fill="#141419" stroke="rgba(255,255,255,0.06)"/>
  <rect x="100" y="100" width="1400" height="48" rx="24" fill="#1A1A20"/>
  <circle cx="130" cy="124" r="8" fill="#F87171"/>
  <circle cx="162" cy="124" r="8" fill="#FBBF24"/>
  <circle cx="194" cy="124" r="8" fill="#34D399"/>
  <rect x="112" y="188" width="506" height="620" rx="28" fill="url(#hero)"/>
  <rect x="652" y="188" width="734" height="194" rx="24" fill="#18181B"/>
  <rect x="652" y="414" width="356" height="394" rx="24" fill="#18181B"/>
  <rect x="1030" y="414" width="356" height="394" rx="24" fill="#18181B"/>
  <rect x="156" y="246" width="210" height="20" rx="10" fill="#FCD34D"/>
  <rect x="156" y="286" width="294" height="20" rx="10" fill="#FAFAFA" fill-opacity="0.92"/>
  <rect x="156" y="324" width="258" height="18" rx="9" fill="#FAFAFA" fill-opacity="0.48"/>
  <rect x="156" y="380" width="170" height="44" rx="22" fill="#F59E0B"/>
  <text x="156" y="748" fill="#FAFAFA" font-size="46" font-family="Arial, sans-serif" font-weight="700">Northline Barber</text>
  <defs>
    <linearGradient id="hero" x1="112" y1="188" x2="618" y2="808" gradientUnits="userSpaceOnUse">
      <stop stop-color="#F59E0B" stop-opacity="0.78"/>
      <stop offset="1" stop-color="#292524" stop-opacity="0.92"/>
    </linearGradient>
  </defs>
</svg>
